<?xml version="1.0" standalone="no"?>
<!DOCTYPE svg PUBLIC "-//W3C//DTD SVG 20010904//EN"
 "http://www.w3.org/TR/2001/REC-SVG-20010904/DTD/svg10.dtd">
<svg version="1.0" xmlns="http://www.w3.org/2000/svg"
 width="700.000000pt" height="700.000000pt" viewBox="0 0 700.000000 700.000000"
 preserveAspectRatio="xMidYMid meet">
<metadata>
Created by potrace 1.14, written by Peter Selinger 2001-2017
</metadata>
<g transform="translate(0.000000,700.000000) scale(0.100000,-0.100000)"
fill="#000000" stroke="none">
<path d="M3090 6989 c0 -5 15 -72 34 -147 73 -294 96 -471 96 -752 0 -538
-138 -1038 -413 -1495 -124 -207 -167 -256 -597 -690 -426 -430 -500 -514
-610 -699 -244 -407 -326 -909 -225 -1383 150 -711 696 -1280 1401 -1463 217
-56 151 -53 1369 -59 l1131 -6 51 -38 c65 -48 128 -118 158 -177 47 -90 48
-91 84 -24 125 230 130 490 16 712 -52 102 -47 100 -90 30 -46 -75 -111 -146
-176 -193 l-47 -35 -508 0 -508 0 73 50 c129 89 194 143 296 245 521 521 698
1290 459 1989 -311 905 -1247 1448 -2184 1267 -52 -11 -96 -18 -97 -17 -1 1
32 26 73 56 332 244 735 423 1134 503 226 46 390 60 645 54 272 -6 420 -26
687 -93 99 -25 183 -43 186 -40 6 7 -80 313 -115 406 -197 532 -510 982 -923
1329 -379 318 -771 519 -1280 655 -106 29 -120 31 -120 15z m466 -375 c340
-137 682 -363 949 -629 155 -154 267 -291 388 -475 117 -178 305 -560 276
-560 -6 0 -59 19 -117 42 -246 96 -549 276 -752 446 -339 285 -627 679 -794
1089 -44 108 -50 123 -43 123 2 0 43 -16 93 -36z m62 -784 c208 -295 511 -588
820 -793 l113 -75 -108 -6 c-467 -30 -857 -133 -1253 -331 l-125 -62 61 123
c190 378 295 769 326 1210 l12 171 54 -86 c29 -47 74 -115 100 -151z m-15
-1985 c304 -61 622 -237 842 -466 87 -91 195 -225 195 -243 0 -13 -147 1 -262
25 -301 61 -569 203 -795 422 -95 92 -116 118 -133 166 -12 31 -30 71 -41 89
-10 18 -19 34 -19 36 0 5 135 -14 213 -29z m-485 17 c-1 -4 -16 -41 -33 -82
-27 -67 -41 -86 -140 -185 -61 -60 -150 -138 -198 -172 -173 -122 -404 -222
-606 -262 -107 -22 -261 -37 -261 -27 0 13 109 153 175 224 175 189 432 354
680 438 144 48 395 92 383 66z m193 -216 c123 -319 141 -683 48 -1014 -26 -93
-88 -252 -99 -252 -11 0 -66 137 -95 235 -49 171 -59 248 -60 450 0 222 20
345 84 523 64 176 64 176 78 155 7 -9 27 -53 44 -97z m-313 -213 c-16 -91 -21
-493 -9 -627 7 -71 10 -130 8 -132 -2 -3 -37 24 -78 58 -149 124 -356 241
-539 302 l-99 33 81 27 c110 36 216 84 320 144 92 53 257 173 297 216 14 14
25 26 26 26 1 0 -2 -21 -7 -47z m741 -135 c121 -81 267 -153 402 -199 l95 -33
-100 -33 c-176 -59 -407 -189 -541 -304 -27 -23 -57 -49 -66 -56 -14 -12 -15
-7 -5 49 13 81 13 613 0 695 l-10 61 60 -55 c34 -30 108 -86 165 -125z m-1569
-333 c307 -67 579 -221 800 -451 64 -66 91 -103 106 -144 l21 -55 -22 -3 c-33
-5 -218 35 -320 69 -126 41 -313 137 -424 216 -136 97 -325 290 -386 392 -10
18 80 8 225 -24z m2381 -7 c-236 -324 -586 -548 -983 -628 -55 -12 -111 -20
-124 -18 l-22 3 25 62 c21 53 41 78 136 170 134 129 241 207 394 285 176 89
415 158 576 167 l29 1 -31 -42z m-2655 -213 c62 -181 79 -294 78 -515 0 -162
-4 -213 -22 -298 -31 -142 -67 -251 -119 -362 l-45 -95 -34 70 c-44 94 -88
228 -116 355 -19 91 -22 133 -22 325 0 191 3 234 22 323 31 140 66 250 115
356 l41 89 34 -74 c19 -41 50 -119 68 -174z m2917 55 c125 -337 133 -744 21
-1087 -29 -90 -86 -223 -95 -223 -12 0 -88 178 -118 277 -55 179 -66 258 -65
478 0 168 3 216 22 302 27 124 69 252 118 359 l36 79 23 -45 c12 -25 38 -88
58 -140z m-344 -185 c-47 -197 -51 -510 -10 -709 11 -55 19 -102 16 -104 -2
-3 -37 26 -77 63 -145 134 -388 276 -590 343 l-87 29 87 29 c200 66 453 215
607 358 39 36 71 65 71 66 1 0 -7 -34 -17 -75z m-2226 -106 c138 -103 352
-212 500 -254 l59 -17 -100 -33 c-193 -65 -411 -190 -572 -329 -41 -35 -76
-63 -77 -62 -1 1 8 47 19 101 19 85 22 133 23 315 0 207 -7 273 -42 420 -6 21
2 17 53 -29 32 -30 94 -80 137 -112z m855 -347 c-1 -4 -12 -32 -23 -62 -16
-44 -40 -75 -125 -160 -202 -202 -428 -335 -702 -411 -92 -26 -296 -61 -307
-53 -8 7 134 176 210 250 237 229 556 387 872 433 34 5 66 9 70 10 5 0 7 -3 5
-7z m442 -13 c308 -48 649 -230 872 -467 62 -66 171 -203 166 -207 -8 -6 -166
19 -255 40 -234 56 -454 167 -650 326 -101 83 -209 204 -226 253 -8 22 -18 49
-22 59 -6 15 -4 17 16 13 13 -3 58 -10 99 -17z m-229 -163 c147 -379 143 -797
-11 -1183 -18 -46 -36 -83 -41 -83 -13 0 -88 205 -114 312 -79 332 -56 650 72
977 43 108 43 108 94 -23z m-313 -213 c-16 -89 -21 -493 -9 -628 7 -70 10
-129 8 -131 -2 -3 -37 24 -78 58 -149 124 -338 231 -529 299 -58 20 -98 39
-90 42 150 46 350 139 470 219 86 58 186 136 214 167 11 12 20 21 21 21 1 0
-2 -21 -7 -47z m662 -78 c141 -108 312 -198 496 -261 l80 -28 -85 -28 c-193
-65 -428 -198 -569 -322 -35 -31 -64 -56 -66 -56 -1 0 2 28 7 63 14 81 14 613
0 695 l-10 63 36 -34 c20 -19 70 -60 111 -92z m-1650 -360 c241 -23 530 -136
749 -293 128 -91 293 -257 309 -309 7 -22 26 -66 43 -98 l31 -58 -72 7 c-366
34 -782 246 -1028 524 -64 72 -155 190 -173 223 -10 19 -8 20 33 15 24 -3 72
-8 108 -11z m2589 -82 c-78 -110 -258 -289 -366 -366 -173 -123 -367 -214
-563 -263 -104 -27 -276 -52 -286 -42 -3 4 3 19 13 35 11 15 31 55 44 88 53
135 301 351 542 472 105 52 288 115 405 138 73 15 261 34 271 28 2 -1 -25 -41
-60 -90z m975 -818 c1 -108 -3 -153 -17 -198 -10 -32 -22 -55 -26 -52 -5 2
-17 37 -27 77 -27 106 -25 251 5 348 l24 75 20 -55 c17 -45 21 -79 21 -195z"/>
</g>
</svg>
