<svg id="Layer_1" data-name="Layer 1" xmlns="http://www.w3.org/2000/svg" viewBox="0 0 341.86 552.87"><defs><style>.cls-1,.cls-2,.cls-3,.cls-4{fill:none;stroke:#fbb040;stroke-miterlimit:10;}.cls-1{stroke-width:9px;}.cls-2{stroke-width:18px;}.cls-3{stroke-width:5px;}.cls-4{stroke-width:6px;}.cls-5{fill:#ccc;}.cls-6{fill:#fbb040;}</style></defs><path class="cls-1" d="M294.76,495.37l-.08.14,0,0h0l.06.11.06-.11h0l0,0Z" transform="translate(-142.82 -119.34)"/><path class="cls-1" d="M294.76,495.66l-.06-.11h-.05A130.94,130.94,0,0,1,181.27,561h0a131,131,0,0,1,113.41,65.52l.08-.15a130.91,130.91,0,0,1,0-130.74Z" transform="translate(-142.82 -119.34)"/><path class="cls-1" d="M294.87,495.55h-.05l-.06.11a130.91,130.91,0,0,1,0,130.74l.1.18h.05a130.87,130.87,0,0,1,113.23-65.47l0,0,0,0A131,131,0,0,1,294.87,495.55Z" transform="translate(-142.82 -119.34)"/><ellipse class="cls-1" cx="151.94" cy="441.69" rx="17.49" ry="65.37"/><path class="cls-1" d="M408.78,431.1l-.61-1.07a131,131,0,0,1-113.31,65.52h0A130.94,130.94,0,0,1,408.14,561h.05l.61-1.06a130,130,0,0,1,0-128.87Z" transform="translate(-142.82 -119.34)"/><path class="cls-1" d="M294.87,495.55A131,131,0,0,0,408.14,561,130.94,130.94,0,0,0,294.87,495.55Z" transform="translate(-142.82 -119.34)"/><path class="cls-1" d="M294.65,495.55h0A131,131,0,0,1,181.24,430l-.11.2a130.79,130.79,0,0,1,0,130.64l.09.16h.05A130.94,130.94,0,0,1,294.65,495.55Z" transform="translate(-142.82 -119.34)"/><path class="cls-1" d="M294.65,495.55A130.94,130.94,0,0,0,181.27,561,130.94,130.94,0,0,0,294.65,495.55Z" transform="translate(-142.82 -119.34)"/><path class="cls-1" d="M294.76,495.37l.08.14A131,131,0,0,1,408.15,430h0a130.94,130.94,0,0,1-113.37-65.41l0,0a130.93,130.93,0,0,1,0,130.75Z" transform="translate(-142.82 -119.34)"/><path class="cls-1" d="M294.84,495.51l0,0A131,131,0,0,0,408.17,430l0,0A131,131,0,0,0,294.84,495.51Z" transform="translate(-142.82 -119.34)"/><path class="cls-1" d="M294.68,495.51l.08-.14a130.93,130.93,0,0,1,0-130.75l-.06-.11h-.06A130.89,130.89,0,0,1,181.27,430h0A130.93,130.93,0,0,1,294.68,495.51Z" transform="translate(-142.82 -119.34)"/><path class="cls-1" d="M294.66,495.55l0,0A130.93,130.93,0,0,0,181.27,430l0,0A131,131,0,0,0,294.66,495.55Z" transform="translate(-142.82 -119.34)"/><ellipse class="cls-1" cx="151.94" cy="310.66" rx="17.49" ry="65.37"/><path class="cls-2" d="M295.94,132.45l-2.12-.56A238.37,238.37,0,0,1,231.13,360h0A238.39,238.39,0,0,1,459.2,297.33l.06-.06c-.19-.7-.37-1.41-.56-2.12a228.88,228.88,0,0,1-162.76-162.7Z" transform="translate(-142.82 -119.34)"/><path class="cls-2" d="M296,132.47A235.95,235.95,0,0,0,461.39,297.84,237.69,237.69,0,0,0,296,132.47Z" transform="translate(-142.82 -119.34)"/><path class="cls-3" d="M474.38,610.59c-.09-.15-.18-.3-.26-.45a56.59,56.59,0,0,1-48.83,27.78h0a56.63,56.63,0,0,1,48.82,27.76h0c.08-.15.17-.29.26-.45a54.35,54.35,0,0,1,0-54.64Z" transform="translate(-142.82 -119.34)"/><path class="cls-4" d="M474.38,610.6a56,56,0,0,0,0,55.54,56.44,56.44,0,0,0,0-55.54Z" transform="translate(-142.82 -119.34)"/><path class="cls-5" d="M194.45,396h0l.05,0h0Z" transform="translate(-142.82 -119.34)"/><path class="cls-6" d="M202.24,403.7l55.12-55.13A282.74,282.74,0,0,0,194.5,396Z" transform="translate(-142.82 -119.34)"/><path class="cls-6" d="M402.43,388.82a152,152,0,0,0-145.6-39.72l39.33-39.32a217,217,0,0,0-55.75,40.31h0a217.57,217.57,0,0,0,39.13-53.44l-93.47,93.47,0,0A152,152,0,0,0,292.92,648.4v0H454.26v-21h-82.1a152.19,152.19,0,0,0,30.27-238.56ZM294,627.38a131,131,0,1,1,1.79,0Z" transform="translate(-142.82 -119.34)"/><path class="cls-6" d="M458.57,639.39l.9-2.07-3.93-3-2.06,4.85,4.57.6c-1.12-3.42-1.12-4.7,1.53-7.12a70.74,70.74,0,0,1,6.5-4.89l-3.68-2.82a59.16,59.16,0,0,0,1.31,28l4.18-2.44c-4.3-3.73-5.31-9.62-12-9.56l1.26,4.66c2.19-1.27,5.34-2.51,6.46-5,1.19-2.65-.73-5.2-1.17-7.77-.48-2.81-5-2.11-4.91.66a41.89,41.89,0,0,0,1.7,11.3c.76,2.59,5.3,2.23,4.91-.66q-1-7.3-1.43-14.65l-4.66,1.26,1.22,2.17c1.57,2.81,5.89.29,4.31-2.52l-1.21-2.17c-1.18-2.1-4.82-1.25-4.66,1.26q.46,7.35,1.43,14.65l4.92-.67a37,37,0,0,1-1.53-10l-4.91.67c.26,1.55.57,2.25.16,3.86-.55,2.16-1.24,2.14-3.16,3.24a2.52,2.52,0,0,0,1.27,4.66c3.42,0,6.11,6.07,8.45,8.1,1.8,1.56,4.92.1,4.18-2.43a53.35,53.35,0,0,1-1.3-25.29c.36-1.91-1.74-4.22-3.68-2.83-3.15,2.28-7.84,4.87-10.19,8-2.11,2.84-1.15,6.5-.13,9.62.59,1.81,3.67,2.73,4.57.6l2.06-4.86c1-2.32-2-5.5-3.93-3a10.71,10.71,0,0,0-2.18,4.27c-.78,3.12,4,4.46,4.82,1.33Z" transform="translate(-142.82 -119.34)"/></svg>